<?xml version="1.0" standalone="no"?><!DOCTYPE svg PUBLIC "-//W3C//DTD SVG 1.1//EN" "http://www.w3.org/Graphics/SVG/1.1/DTD/svg11.dtd"><svg t="1490869578571" class="icon" style="" viewBox="0 0 1024 1024" version="1.1" xmlns="http://www.w3.org/2000/svg" p-id="2374" xmlns:xlink="http://www.w3.org/1999/xlink" width="200" height="200"><defs><style type="text/css"></style></defs><path d="M531.833856 79.148032c-170.108928 0-308.534272 134.647808-308.534272 300.13952 0 271.005696 284.091392 584.477696 296.183808 597.69344l12.381184 13.55776 12.350464-13.584384c12.116992-13.299712 296.128512-328.682496 296.128512-597.66784C840.342528 213.79584 701.94688 79.148032 531.833856 79.148032L531.833856 79.148032zM531.78368 941.442048c-55.185408-64.17408-275.386368-334.577664-275.386368-562.153472 0-147.733504 123.584512-267.922432 275.43552-267.922432 151.830528 0 275.386368 120.188928 275.386368 267.922432C807.220224 605.053952 586.939392 876.949504 531.78368 941.442048L531.78368 941.442048zM535.40352 267.98592c-65.04448 0-117.971968 51.506176-117.971968 114.808832 0 63.323136 52.927488 114.818048 117.971968 114.818048 65.069056 0 117.991424-51.494912 117.991424-114.818048C653.400064 319.491072 600.472576 267.98592 535.40352 267.98592L535.40352 267.98592zM535.40352 465.395712c-46.761984 0-84.873216-37.047296-84.873216-82.60608 0-45.513728 38.106112-82.57024 84.873216-82.57024 46.81216 0 84.896768 37.056512 84.896768 82.57024C620.301312 428.348416 582.21568 465.395712 535.40352 465.395712L535.40352 465.395712z" p-id="2375" fill="#8a8a8a"></path></svg>