<?xml version="1.0" standalone="no"?><!DOCTYPE svg PUBLIC "-//W3C//DTD SVG 1.1//EN" "http://www.w3.org/Graphics/SVG/1.1/DTD/svg11.dtd"><svg t="1491393776231" class="icon" style="" viewBox="0 0 1025 1024" version="1.1" xmlns="http://www.w3.org/2000/svg" p-id="3875" xmlns:xlink="http://www.w3.org/1999/xlink" width="32.03125" height="32"><defs><style type="text/css"></style></defs><path d="M1017.611212 510.517827C1017.452172 791.49458 789.695735 1019.478216 509.713348 1018.92481 227.247958 1018.373707-0.890238 789.878647 0.005184 508.417863 0.904062 225.629721 230.272912-0.984638 514.613307 0.00512 791.491188 0.967678 1017.782796 230.634256 1017.611212 510.517827L1017.611212 510.517827ZM400.106706 640.532367C361.912473 600.36425 328.151193 562.766625 292.076252 527.530275 257.825181 494.070114 213.432048 494.848544 183.236648 526.447333 154.682142 556.338221 156.960602 595.0961 190.643483 629.483492 236.163845 675.953869 282.266031 721.845815 328.419352 767.692321 381.802228 820.718397 421.824873 820.405886 475.342917 767.057122 546.854143 695.775463 618.399481 624.527853 689.830003 553.164339 737.219738 505.817868 785.246912 459.069091 831.427497 410.571454 861.337649 379.155577 860.75813 335.681803 833.342245 308.359102 805.551386 280.651186 760.202607 281.483056 728.274282 310.620474 717.518591 320.436391 707.343634 330.887508 697.076581 341.228352 599.963163 439.057737 502.894033 536.926865 400.106706 640.532367L400.106706 640.532367Z" p-id="3876" fill="#2ebd01"></path></svg>